<svg width="1280" height="924" viewBox="0 0 1280 924" fill="none" xmlns="http://www.w3.org/2000/svg">
<g clip-path="url(#clip0_34_137)">
<rect width="1299" height="924" transform="translate(-10)" fill="white"/>
<path opacity="0.5" d="M621.788 991.762C636.174 1001.35 655.717 997.989 664.611 983.161C691.001 939.165 706.843 889.98 710.81 839.165C715.571 778.183 703.054 717.102 674.573 662.33C646.092 607.558 602.697 561.114 548.939 527.871C495.182 494.627 433.044 475.809 369.046 473.391C305.047 470.973 241.546 485.045 185.206 514.129C128.865 543.213 81.7615 586.238 48.8365 638.69C15.9114 691.142 -1.62134 751.088 -1.92233 812.238C-2.17282 863.129 9.51923 913.293 32.1293 959.095C39.7998 974.633 59.0676 979.545 74.1865 971.077L80.7746 967.388C96.7828 958.422 101.918 937.99 94.3571 921.272C78.8855 887.065 70.918 850.064 71.1026 812.565C71.342 763.929 85.2869 716.25 111.474 674.532C137.662 632.813 175.127 598.592 219.938 575.459C264.75 552.327 315.256 541.135 366.158 543.058C417.061 544.981 466.483 559.948 509.24 586.389C551.997 612.83 586.512 649.77 609.165 693.334C631.818 736.898 641.773 785.48 637.987 833.982C635.067 871.378 624.062 907.665 605.806 940.599C596.892 956.68 600.41 977.508 615.708 987.708L621.788 991.762Z" fill="#B2B2F1" fill-opacity="0.5"/>
<path d="M112.722 74.2789C112.722 98.3577 93.202 117.877 69.1232 117.877C45.0444 117.877 25.5247 98.3577 25.5247 74.2789C25.5247 50.2001 45.0444 30.6804 69.1232 30.6804C93.202 30.6804 112.722 50.2001 112.722 74.2789ZM35.7123 74.2789C35.7123 92.7313 50.6709 107.69 69.1232 107.69C87.5755 107.69 102.534 92.7313 102.534 74.2789C102.534 55.8266 87.5755 40.8681 69.1232 40.8681C50.6709 40.8681 35.7123 55.8266 35.7123 74.2789Z" fill="#ECECFB"/>
<path d="M1204.3 718.568C1204.3 742.647 1184.78 762.167 1160.7 762.167C1136.62 762.167 1117.1 742.647 1117.1 718.568C1117.1 694.489 1136.62 674.97 1160.7 674.97C1184.78 674.97 1204.3 694.489 1204.3 718.568ZM1127.29 718.568C1127.29 737.021 1142.25 751.979 1160.7 751.979C1179.15 751.979 1194.11 737.021 1194.11 718.568C1194.11 700.116 1179.15 685.157 1160.7 685.157C1142.25 685.157 1127.29 700.116 1127.29 718.568Z" fill="#ECECFB"/>
<path d="M1065.43 313.263C1065.43 337.342 1045.91 356.862 1021.83 356.862C997.753 356.862 978.233 337.342 978.233 313.263C978.233 289.185 997.753 269.665 1021.83 269.665C1045.91 269.665 1065.43 289.185 1065.43 313.263ZM988.421 313.263C988.421 331.716 1003.38 346.674 1021.83 346.674C1040.28 346.674 1055.24 331.716 1055.24 313.263C1055.24 294.811 1040.28 279.853 1021.83 279.853C1003.38 279.853 988.421 294.811 988.421 313.263Z" fill="#ECECFB"/>
<path d="M1369 -3.05176e-05C1369 107.909 1281.53 195.386 1173.62 195.386C1065.71 195.386 978.233 107.909 978.233 -3.05176e-05C978.233 -107.909 1065.71 -195.386 1173.62 -195.386C1281.53 -195.386 1369 -107.909 1369 -3.05176e-05ZM1023.89 -3.05176e-05C1023.89 82.6937 1090.93 149.73 1173.62 149.73C1256.31 149.73 1323.35 82.6937 1323.35 -3.05176e-05C1323.35 -82.6937 1256.31 -149.73 1173.62 -149.73C1090.93 -149.73 1023.89 -82.6937 1023.89 -3.05176e-05Z" fill="#ECECFB"/>
<path d="M907.184 211.534C907.184 319.442 819.706 406.919 711.798 406.919C603.889 406.919 516.412 319.442 516.412 211.534C516.412 103.625 603.889 16.1476 711.798 16.1476C819.706 16.1476 907.184 103.625 907.184 211.534ZM562.067 211.534C562.067 294.227 629.104 361.264 711.798 361.264C794.491 361.264 861.528 294.227 861.528 211.534C861.528 128.84 794.491 61.8033 711.798 61.8033C629.104 61.8033 562.067 128.84 562.067 211.534Z" fill="#ECECFB"/>
<path d="M1551.47 410.149C1551.47 518.058 1464 605.535 1356.09 605.535C1248.18 605.535 1160.7 518.058 1160.7 410.149C1160.7 302.24 1248.18 214.763 1356.09 214.763C1464 214.763 1551.47 302.24 1551.47 410.149ZM1206.36 410.149C1206.36 492.843 1273.39 559.879 1356.09 559.879C1438.78 559.879 1505.82 492.843 1505.82 410.149C1505.82 327.455 1438.78 260.419 1356.09 260.419C1273.39 260.419 1206.36 327.455 1206.36 410.149Z" fill="#ECECFB"/>
<path d="M354.936 276.931C354.936 335.345 307.582 382.698 249.169 382.698C190.755 382.698 143.402 335.345 143.402 276.931C143.402 218.518 190.755 171.165 249.169 171.165C307.582 171.165 354.936 218.518 354.936 276.931ZM168.117 276.931C168.117 321.695 204.405 357.984 249.169 357.984C293.933 357.984 330.221 321.695 330.221 276.931C330.221 232.167 293.933 195.879 249.169 195.879C204.405 195.879 168.117 232.167 168.117 276.931Z" fill="#ECECFB"/>
<path d="M978.233 538.522C978.233 592.477 934.494 636.215 880.54 636.215C826.586 636.215 782.847 592.477 782.847 538.522C782.847 484.568 826.586 440.829 880.54 440.829C934.494 440.829 978.233 484.568 978.233 538.522ZM805.675 538.522C805.675 579.869 839.193 613.388 880.54 613.388C921.887 613.388 955.405 579.869 955.405 538.522C955.405 497.176 921.887 463.657 880.54 463.657C839.193 463.657 805.675 497.176 805.675 538.522Z" fill="#ECECFB"/>
</g>
<defs>
<clipPath id="clip0_34_137">
<rect width="1299" height="924" fill="white" transform="translate(-10)"/>
</clipPath>
</defs>
</svg>
