<svg width="1280" height="3233" viewBox="0 0 1280 3233" fill="none" xmlns="http://www.w3.org/2000/svg">
<g clip-path="url(#clip0_86_161)">
<rect width="3233" height="1291" transform="matrix(0 -1 1 0 0 3233)" fill="white"/>
<path opacity="0.5" d="M1670.63 2168.75C1686.79 2144.51 1681.12 2111.6 1656.14 2096.61C1582.03 2052.16 1499.18 2025.47 1413.58 2018.79C1310.86 2010.77 1207.96 2031.85 1115.7 2079.83C1023.44 2127.81 945.201 2200.91 889.202 2291.46C833.203 2382.02 801.504 2486.69 797.431 2594.49C793.358 2702.3 817.061 2809.27 866.054 2904.17C915.047 2999.08 987.523 3078.43 1075.88 3133.89C1164.23 3189.35 1265.21 3218.89 1368.22 3219.39C1453.95 3219.81 1538.45 3200.12 1615.6 3162.03C1641.78 3149.11 1650.05 3116.65 1635.79 3091.19L1629.57 3080.09C1614.47 3053.12 1580.05 3044.47 1551.89 3057.21C1494.27 3083.27 1431.94 3096.69 1368.77 3096.38C1286.84 3095.98 1206.53 3072.49 1136.25 3028.38C1065.98 2984.26 1008.33 2921.15 969.366 2845.67C930.398 2770.18 911.546 2685.1 914.785 2599.36C918.024 2513.61 943.237 2430.36 987.777 2358.34C1032.32 2286.31 1094.54 2228.17 1167.93 2190.01C1241.31 2151.85 1323.15 2135.08 1404.85 2141.46C1467.84 2146.38 1528.97 2164.92 1584.44 2195.67C1611.53 2210.69 1646.62 2204.76 1663.8 2178.99L1670.63 2168.75Z" fill="#B2B2F1" fill-opacity="0.5"/>
<path d="M125.124 3026.27C165.685 3026.27 198.566 3059.16 198.566 3099.72C198.566 3140.28 165.685 3173.16 125.124 3173.16C84.5628 3173.16 51.6816 3140.28 51.6816 3099.72C51.6816 3059.16 84.5628 3026.27 125.124 3026.27ZM125.124 3156C156.207 3156 181.405 3130.8 181.405 3099.72C181.405 3068.63 156.207 3043.44 125.124 3043.44C94.0406 3043.44 68.8428 3068.63 68.8428 3099.72C68.8428 3130.8 94.0406 3156 125.124 3156Z" fill="#ECECFB"/>
<path d="M1210.43 1187.5C1250.99 1187.5 1283.88 1220.39 1283.88 1260.95C1283.88 1301.51 1250.99 1334.39 1210.43 1334.39C1169.87 1334.39 1136.99 1301.51 1136.99 1260.95C1136.99 1220.39 1169.87 1187.5 1210.43 1187.5ZM1210.43 1317.23C1241.52 1317.23 1266.71 1292.03 1266.71 1260.95C1266.71 1229.86 1241.52 1204.67 1210.43 1204.67C1179.35 1204.67 1154.15 1229.86 1154.15 1260.95C1154.15 1292.03 1179.35 1317.23 1210.43 1317.23Z" fill="#ECECFB"/>
<path d="M527.694 1421.43C568.255 1421.43 601.136 1454.31 601.136 1494.87C601.136 1535.43 568.255 1568.31 527.694 1568.31C487.134 1568.31 454.252 1535.43 454.252 1494.87C454.252 1454.31 487.134 1421.43 527.694 1421.43ZM527.694 1551.15C558.778 1551.15 583.975 1525.96 583.975 1494.87C583.975 1463.79 558.778 1438.59 527.694 1438.59C496.611 1438.59 471.414 1463.79 471.414 1494.87C471.414 1525.96 496.611 1551.15 527.694 1551.15Z" fill="#ECECFB"/>
<path d="M327.769 270.839C427.669 270.839 508.654 351.824 508.654 451.724C508.654 551.624 427.669 632.609 327.769 632.609C227.869 632.609 146.884 551.624 146.884 451.724C146.884 351.824 227.869 270.839 327.769 270.839ZM327.769 590.341C404.325 590.341 466.386 528.28 466.386 451.724C466.386 375.167 404.325 313.106 327.769 313.106C251.212 313.106 189.151 375.167 189.151 451.724C189.151 528.28 251.212 590.341 327.769 590.341Z" fill="#ECECFB"/>
<path d="M0.00012207 910.056C181.773 910.056 329.129 1057.41 329.129 1239.19C329.129 1420.96 181.773 1568.31 0.00012207 1568.31C-181.773 1568.31 -329.129 1420.96 -329.129 1239.19C-329.129 1057.41 -181.773 910.056 0.00012207 910.056ZM0.00012207 1491.41C139.298 1491.41 252.222 1378.48 252.222 1239.19C252.222 1099.89 139.298 986.964 0.00012207 986.964C-139.298 986.964 -252.221 1099.89 -252.221 1239.19C-252.221 1378.48 -139.298 1491.41 0.00012207 1491.41Z" fill="#ECECFB"/>
<path d="M125.124 -621.346C306.897 -621.346 454.253 -473.99 454.253 -292.217C454.253 -110.444 306.897 36.9124 125.124 36.9124C-56.6493 36.9124 -204.005 -110.444 -204.005 -292.217C-204.005 -473.99 -56.6493 -621.346 125.124 -621.346ZM125.124 -39.9951C264.422 -39.9951 377.345 -152.919 377.345 -292.217C377.345 -431.515 264.422 -544.438 125.124 -544.438C-14.1745 -544.438 -127.098 -431.515 -127.098 -292.217C-127.098 -152.919 -14.1745 -39.9951 125.124 -39.9951Z" fill="#ECECFB"/>
<path d="M356.33 1688C538.103 1688 685.459 1835.35 685.459 2017.13C685.459 2198.9 538.103 2346.26 356.33 2346.26C174.557 2346.26 27.2007 2198.9 27.2007 2017.13C27.2007 1835.35 174.557 1688 356.33 1688ZM356.33 2269.35C495.628 2269.35 608.551 2156.42 608.551 2017.13C608.551 1877.83 495.628 1764.91 356.33 1764.91C217.032 1764.91 104.108 1877.83 104.108 2017.13C104.108 2156.42 217.032 2269.35 356.33 2269.35Z" fill="#ECECFB"/>
<path d="M690.899 602.688C872.672 602.688 1020.03 750.044 1020.03 931.817C1020.03 1113.59 872.672 1260.95 690.899 1260.95C509.126 1260.95 361.77 1113.59 361.77 931.817C361.77 750.044 509.126 602.688 690.899 602.688ZM690.899 1184.04C830.197 1184.04 943.121 1071.12 943.121 931.817C943.121 792.519 830.197 679.595 690.899 679.595C551.601 679.595 438.677 792.519 438.677 931.817C438.677 1071.12 551.601 1184.04 690.899 1184.04Z" fill="#ECECFB"/>
<path d="M466.493 2618.26C564.891 2618.26 644.658 2698.03 644.658 2796.43C644.658 2894.83 564.891 2974.59 466.493 2974.59C368.095 2974.59 288.328 2894.83 288.328 2796.43C288.328 2698.03 368.095 2618.26 466.493 2618.26ZM466.493 2932.96C541.898 2932.96 603.026 2871.83 603.026 2796.43C603.026 2721.02 541.898 2659.89 466.493 2659.89C391.088 2659.89 329.96 2721.02 329.96 2796.43C329.96 2871.83 391.088 2932.96 466.493 2932.96Z" fill="#ECECFB"/>
<path d="M907.145 1568.31C998.032 1568.31 1071.71 1641.99 1071.71 1732.88C1071.71 1823.77 998.032 1897.44 907.145 1897.44C816.259 1897.44 742.581 1823.77 742.581 1732.88C742.581 1641.99 816.259 1568.31 907.145 1568.31ZM907.145 1858.99C976.794 1858.99 1033.26 1802.53 1033.26 1732.88C1033.26 1663.23 976.794 1606.77 907.145 1606.77C837.496 1606.77 781.034 1663.23 781.034 1732.88C781.034 1802.53 837.496 1858.99 907.145 1858.99Z" fill="#ECECFB"/>
<path d="M1369.56 420.443C1469.46 420.443 1550.44 501.428 1550.44 601.328C1550.44 701.228 1469.46 782.213 1369.56 782.213C1269.66 782.213 1188.67 701.228 1188.67 601.328C1188.67 501.428 1269.66 420.443 1369.56 420.443ZM1369.56 739.945C1446.11 739.945 1508.18 677.884 1508.18 601.328C1508.18 524.771 1446.11 462.71 1369.56 462.71C1293 462.71 1230.94 524.771 1230.94 601.328C1230.94 677.884 1293 739.945 1369.56 739.945Z" fill="#ECECFB"/>
<path d="M908.505 36.9123C985.12 36.9123 1047.23 99.021 1047.23 175.636C1047.23 252.251 985.12 314.36 908.505 314.36C831.89 314.36 769.781 252.251 769.781 175.636C769.781 99.021 831.89 36.9123 908.505 36.9123ZM908.505 281.944C967.217 281.944 1014.81 234.349 1014.81 175.636C1014.81 116.924 967.217 69.3278 908.505 69.3278C849.793 69.3278 802.197 116.924 802.197 175.636C802.197 234.349 849.793 281.944 908.505 281.944Z" fill="#ECECFB"/>
</g>
<defs>
<clipPath id="clip0_86_161">
<rect width="3233" height="1291" fill="white" transform="matrix(0 -1 1 0 0 3233)"/>
</clipPath>
</defs>
</svg>
