<svg width="150" height="150" viewBox="0 0 150 150" fill="none" xmlns="http://www.w3.org/2000/svg">
<path d="M59.0508 5.71143L33.3311 8.38652L11.7261 36.1641V51.5965L28.1868 69.7034L47.117 65.794L61.5205 68.6745L58.4341 79.7856L68.3104 97.6869L63.3724 110.238L75.0296 144.289L90.7386 141.72L105.142 125.465L106.376 114.148L115.636 107.152L113.784 86.7814L138.274 55.4355L123.043 57.5634L99.7919 17.0285L63.1661 14.5594L59.0511 5.71172L59.0508 5.71143ZM132.98 99.4028L128.761 105.514L124.833 105.659C121.361 112.785 121.142 116.798 120.759 125.156L125.851 126.466L132.253 111.188L132.98 99.4028Z" fill="#000225"/>
</svg>
