<svg width="170" height="135" viewBox="0 0 170 135" fill="none" xmlns="http://www.w3.org/2000/svg">
<path d="M52.5 65C61.1195 65 69.386 61.5759 75.481 55.481C81.5759 49.386 85 41.1195 85 32.5C85 23.8805 81.5759 15.614 75.481 9.51903C69.386 3.4241 61.1195 0 52.5 0C43.8805 0 35.614 3.4241 29.519 9.51903C23.4241 15.614 20 23.8805 20 32.5C20 41.1195 23.4241 49.386 29.519 55.481C35.614 61.5759 43.8805 65 52.5 65ZM109.37 116.45C114.67 118.62 121.41 120 129.99 120C169.99 120 169.99 90 169.99 90C169.99 86.0235 168.411 82.2097 165.6 79.3969C162.789 76.5842 158.977 75.0027 155 75H108.72C112.65 79.76 115.01 85.85 115.01 92.5V96.06C114.99 96.902 114.933 97.7428 114.84 98.58C114.165 104.828 112.303 110.892 109.37 116.45ZM155 40C155 46.6304 152.366 52.9893 147.678 57.6777C142.989 62.3661 136.63 65 130 65C123.37 65 117.011 62.3661 112.322 57.6777C107.634 52.9893 105 46.6304 105 40C105 33.3696 107.634 27.0107 112.322 22.3223C117.011 17.6339 123.37 15 130 15C136.63 15 142.989 17.6339 147.678 22.3223C152.366 27.0107 155 33.3696 155 40ZM0 95C0 89.6957 2.10714 84.6086 5.85786 80.8579C9.60859 77.1071 14.6957 75 20 75H85C90.3043 75 95.3914 77.1071 99.1421 80.8579C102.893 84.6086 105 89.6957 105 95C105 95 105 135 52.5 135C0 135 0 95 0 95Z" fill="#000225"/>
</svg>
