<svg width="103" height="67" viewBox="0 0 103 67" fill="none" xmlns="http://www.w3.org/2000/svg">
<path d="M50.9143 36.5245C50.9143 39.1457 50.5701 41.6742 49.8817 44.11C49.2198 46.5194 48.2667 48.7831 47.0223 50.9013C45.7779 52.9929 44.2952 54.9125 42.5742 56.6599C40.8532 58.3809 38.9337 59.8636 36.8156 61.108C34.6974 62.3524 32.4205 63.3187 29.9846 64.0071C27.5753 64.669 25.06 65 22.4388 65H5.28206V8.04906H22.4388C25.06 8.04906 27.5753 8.39325 29.9846 9.08164C32.4205 9.74356 34.6974 10.6967 36.8156 11.9411C38.9337 13.1855 40.8532 14.6814 42.5742 16.4289C44.2952 18.1498 45.7779 20.0694 47.0223 22.1875C48.2667 24.2792 49.2198 26.5429 49.8817 28.9787C50.5701 31.3881 50.9143 33.9034 50.9143 36.5245ZM39.5162 36.5245C39.5162 34.1681 39.0661 31.9573 38.1659 29.8922C37.2921 27.827 36.0742 26.0266 34.5121 24.491C32.9765 22.9288 31.1628 21.6977 29.0712 20.7975C27.006 19.8973 24.7952 19.4472 22.4388 19.4472H16.7596V53.6019H22.4388C24.7952 53.6019 27.006 53.165 29.0712 52.2913C31.1628 51.3911 32.9765 50.1732 34.5121 48.6375C36.0742 47.0754 37.2921 45.2618 38.1659 43.1966C39.0661 41.105 39.5162 38.8809 39.5162 36.5245Z" fill="black"/>
<path d="M56.152 65H44.7539V8.04906H56.152V36.5245L77.3597 8.04906H90.3067L72.3159 32.0765L90.3067 65H77.3597L64.8495 41.9654L56.152 53.6019V65Z" fill="black"/>
</svg>
