<svg width="1276" height="590" viewBox="0 0 1276 590" fill="none" xmlns="http://www.w3.org/2000/svg">
<g clip-path="url(#clip0_11_94)">
<rect width="1290" height="590" transform="translate(-14)" fill="white"/>
<path opacity="0.5" d="M377.258 614.185C386.168 620.126 398.27 618.041 403.778 608.859C420.121 581.613 429.932 551.153 432.389 519.684C435.337 481.919 427.585 444.092 409.947 410.173C392.309 376.253 365.435 347.491 332.144 326.903C298.853 306.316 260.372 294.662 220.738 293.165C181.105 291.668 141.779 300.382 106.889 318.393C71.9975 336.405 42.8268 363.05 22.4367 395.533C2.04664 428.016 -8.81116 465.139 -8.99756 503.008C-9.15269 534.524 -1.91194 565.59 12.0902 593.955C16.8404 603.578 28.7727 606.62 38.1357 601.376L42.2156 599.091C52.1293 593.538 55.3096 580.885 50.6271 570.532C41.0457 549.348 36.1115 526.433 36.2258 503.211C36.3741 473.091 45.01 443.564 61.2276 417.729C77.4452 391.893 100.647 370.7 128.398 356.375C156.149 342.049 187.427 335.118 218.95 336.309C250.473 337.5 281.08 346.769 307.558 363.143C334.037 379.518 355.412 402.394 369.441 429.373C383.47 456.351 389.635 486.437 387.29 516.474C385.482 539.633 378.666 562.105 367.361 582.501C361.84 592.46 364.019 605.358 373.493 611.675L377.258 614.185Z" fill="#B2B2F1" fill-opacity="0.5"/>
<path opacity="0.5" d="M1594.86 555.435C1604.58 561.313 1617.33 557.94 1621.86 547.518C1634.71 517.992 1641.21 485.774 1640.82 453.144C1640.33 413.482 1629.67 374.675 1609.94 340.794C1590.21 306.913 1562.14 279.206 1528.69 260.581C1495.23 241.957 1457.61 233.1 1419.79 234.941C1381.96 236.781 1345.32 249.251 1313.7 271.042C1282.08 292.834 1256.65 323.143 1240.09 358.79C1223.52 394.437 1216.43 434.109 1219.55 473.642C1222.11 506.129 1231.49 537.539 1246.93 565.663C1252.41 575.644 1265.44 577.811 1274.58 571.022L1277.64 568.75C1286.24 562.364 1288.17 550.385 1283.15 540.925C1271.59 519.133 1264.55 494.952 1262.58 469.971C1260.1 438.527 1265.74 406.974 1278.92 378.621C1292.09 350.269 1312.31 326.162 1337.46 308.83C1362.61 291.498 1391.76 281.579 1421.84 280.115C1451.93 278.651 1481.85 285.696 1508.46 300.509C1535.07 315.323 1557.39 337.36 1573.08 364.308C1588.77 391.256 1597.26 422.121 1597.64 453.667C1597.95 478.729 1593.13 503.487 1583.6 526.305C1579.47 536.206 1582.52 547.978 1591.7 553.528L1594.86 555.435Z" fill="#B2B2F1" fill-opacity="0.5"/>
<path d="M62 46C62 60.9117 49.9117 73 35 73C20.0883 73 8 60.9117 8 46C8 31.0883 20.0883 19 35 19C49.9117 19 62 31.0883 62 46ZM14.3091 46C14.3091 57.4273 23.5727 66.6909 35 66.6909C46.4273 66.6909 55.6909 57.4273 55.6909 46C55.6909 34.5727 46.4273 25.3091 35 25.3091C23.5727 25.3091 14.3091 34.5727 14.3091 46Z" fill="#ECECFB"/>
<path d="M738 445C738 459.912 725.912 472 711 472C696.088 472 684 459.912 684 445C684 430.088 696.088 418 711 418C725.912 418 738 430.088 738 445ZM690.309 445C690.309 456.427 699.573 465.691 711 465.691C722.427 465.691 731.691 456.427 731.691 445C731.691 433.573 722.427 424.309 711 424.309C699.573 424.309 690.309 433.573 690.309 445Z" fill="#ECECFB"/>
<path d="M652 194C652 208.912 639.912 221 625 221C610.088 221 598 208.912 598 194C598 179.088 610.088 167 625 167C639.912 167 652 179.088 652 194ZM604.309 194C604.309 205.427 613.573 214.691 625 214.691C636.427 214.691 645.691 205.427 645.691 194C645.691 182.573 636.427 173.309 625 173.309C613.573 173.309 604.309 182.573 604.309 194Z" fill="#ECECFB"/>
<path d="M1075 120.5C1075 157.227 1045.23 187 1008.5 187C971.773 187 942 157.227 942 120.5C942 83.7731 971.773 54 1008.5 54C1045.23 54 1075 83.7731 1075 120.5ZM957.539 120.5C957.539 148.645 980.355 171.461 1008.5 171.461C1036.64 171.461 1059.46 148.645 1059.46 120.5C1059.46 92.355 1036.64 69.539 1008.5 69.539C980.355 69.539 957.539 92.355 957.539 120.5Z" fill="#ECECFB"/>
<path d="M840 0C840 66.8265 785.826 121 719 121C652.174 121 598 66.8265 598 0C598 -66.8265 652.174 -121 719 -121C785.826 -121 840 -66.8265 840 0ZM626.274 0C626.274 51.2112 667.789 92.726 719 92.726C770.211 92.726 811.726 51.2112 811.726 0C811.726 -51.2112 770.211 -92.726 719 -92.726C667.789 -92.726 626.274 -51.2112 626.274 0Z" fill="#ECECFB"/>
<path d="M1403 46C1403 112.826 1348.83 167 1282 167C1215.17 167 1161 112.826 1161 46C1161 -20.8265 1215.17 -75 1282 -75C1348.83 -75 1403 -20.8265 1403 46ZM1189.27 46C1189.27 97.2112 1230.79 138.726 1282 138.726C1333.21 138.726 1374.73 97.2112 1374.73 46C1374.73 -5.21115 1333.21 -46.726 1282 -46.726C1230.79 -46.726 1189.27 -5.21115 1189.27 46Z" fill="#ECECFB"/>
<path d="M554 131C554 197.826 499.826 252 433 252C366.174 252 312 197.826 312 131C312 64.1735 366.174 10 433 10C499.826 10 554 64.1735 554 131ZM340.274 131C340.274 182.211 381.789 223.726 433 223.726C484.211 223.726 525.726 182.211 525.726 131C525.726 79.7888 484.211 38.274 433 38.274C381.789 38.274 340.274 79.7888 340.274 131Z" fill="#ECECFB"/>
<path d="M953 254C953 320.826 898.826 375 832 375C765.174 375 711 320.826 711 254C711 187.174 765.174 133 832 133C898.826 133 953 187.174 953 254ZM739.274 254C739.274 305.211 780.789 346.726 832 346.726C883.211 346.726 924.726 305.211 924.726 254C924.726 202.789 883.211 161.274 832 161.274C780.789 161.274 739.274 202.789 739.274 254Z" fill="#ECECFB"/>
<path d="M212 171.5C212 207.675 182.675 237 146.5 237C110.325 237 81 207.675 81 171.5C81 135.325 110.325 106 146.5 106C182.675 106 212 135.325 212 171.5ZM96.3054 171.5C96.3054 199.222 118.778 221.695 146.5 221.695C174.222 221.695 196.695 199.222 196.695 171.5C196.695 143.778 174.222 121.305 146.5 121.305C118.778 121.305 96.3054 143.778 96.3054 171.5Z" fill="#ECECFB"/>
<path d="M598 333.5C598 366.913 570.913 394 537.5 394C504.087 394 477 366.913 477 333.5C477 300.087 504.087 273 537.5 273C570.913 273 598 300.087 598 333.5ZM491.137 333.5C491.137 359.106 511.894 379.863 537.5 379.863C563.106 379.863 583.863 359.106 583.863 333.5C583.863 307.894 563.106 287.137 537.5 287.137C511.894 287.137 491.137 307.894 491.137 333.5Z" fill="#ECECFB"/>
<path d="M1020 503.5C1020 540.227 990.227 570 953.5 570C916.773 570 887 540.227 887 503.5C887 466.773 916.773 437 953.5 437C990.227 437 1020 466.773 1020 503.5ZM902.539 503.5C902.539 531.645 925.355 554.461 953.5 554.461C981.645 554.461 1004.46 531.645 1004.46 503.5C1004.46 475.355 981.645 452.539 953.5 452.539C925.355 452.539 902.539 475.355 902.539 503.5Z" fill="#ECECFB"/>
<path d="M1161 334C1161 362.167 1138.17 385 1110 385C1081.83 385 1059 362.167 1059 334C1059 305.833 1081.83 283 1110 283C1138.17 283 1161 305.833 1161 334ZM1070.92 334C1070.92 355.585 1088.42 373.083 1110 373.083C1131.58 373.083 1149.08 355.585 1149.08 334C1149.08 312.415 1131.58 294.917 1110 294.917C1088.42 294.917 1070.92 312.415 1070.92 334Z" fill="#ECECFB"/>
</g>
<defs>
<clipPath id="clip0_11_94">
<rect width="1290" height="590" fill="white" transform="translate(-14)"/>
</clipPath>
</defs>
</svg>
