<svg width="248" height="67" viewBox="0 0 248 67" fill="none" xmlns="http://www.w3.org/2000/svg">
<path d="M50.9143 36.5245C50.9143 39.1457 50.5701 41.6742 49.8817 44.11C49.2198 46.5194 48.2667 48.7831 47.0223 50.9013C45.7779 52.9929 44.2952 54.9125 42.5742 56.6599C40.8532 58.3809 38.9337 59.8636 36.8156 61.108C34.6974 62.3524 32.4205 63.3187 29.9846 64.0071C27.5753 64.669 25.06 65 22.4388 65H5.28206V8.04906H22.4388C25.06 8.04906 27.5753 8.39325 29.9846 9.08164C32.4205 9.74356 34.6974 10.6967 36.8156 11.9411C38.9337 13.1855 40.8532 14.6814 42.5742 16.4289C44.2952 18.1498 45.7779 20.0694 47.0223 22.1875C48.2667 24.2792 49.2198 26.5429 49.8817 28.9787C50.5701 31.3881 50.9143 33.9034 50.9143 36.5245ZM39.5162 36.5245C39.5162 34.1681 39.0661 31.9573 38.1659 29.8922C37.2921 27.827 36.0742 26.0266 34.5121 24.491C32.9765 22.9288 31.1628 21.6977 29.0712 20.7975C27.006 19.8973 24.7952 19.4472 22.4388 19.4472H16.7596V53.6019H22.4388C24.7952 53.6019 27.006 53.165 29.0712 52.2913C31.1628 51.3911 32.9765 50.1732 34.5121 48.6375C36.0742 47.0754 37.2921 45.2618 38.1659 43.1966C39.0661 41.105 39.5162 38.8809 39.5162 36.5245Z" fill="black"/>
<path d="M56.152 65H44.7539V8.04906H56.152V36.5245L77.3597 8.04906H90.3067L72.3159 32.0765L90.3067 65H77.3597L64.8495 41.9654L56.152 53.6019V65Z" fill="black"/>
<path d="M94.767 8.39624H248V65.483H94.767L76.7396 32.2604L94.767 8.39624Z" fill="url(#paint0_linear_7_252)"/>
<path d="M120.507 47.0559C120.153 47.4882 119.669 47.927 119.053 48.3724C118.437 48.8178 117.71 49.2173 116.872 49.571C116.02 49.9378 115.071 50.2325 114.023 50.4552C112.975 50.6779 111.848 50.7892 110.643 50.7892C109.595 50.7892 108.606 50.6648 107.676 50.4159C106.759 50.1801 105.914 49.833 105.141 49.3745C104.382 48.9029 103.687 48.3265 103.059 47.6454C102.443 46.9642 101.919 46.1848 101.487 45.3071C100.989 44.3377 100.609 43.2439 100.347 42.0257C100.098 40.8074 99.9736 39.4844 99.9736 38.0566V34.166C99.9736 32.8037 100.098 31.5396 100.347 30.3737C100.596 29.1948 100.95 28.1272 101.408 27.1709C101.84 26.3195 102.338 25.5531 102.901 24.872C103.478 24.1908 104.107 23.6013 104.788 23.1035C105.587 22.5403 106.458 22.1145 107.401 21.8263C108.344 21.5382 109.34 21.3941 110.388 21.3941C111.999 21.3941 113.401 21.5971 114.593 22.0032C115.798 22.4093 116.813 22.9922 117.638 23.752C118.464 24.5248 119.105 25.4614 119.564 26.5618C120.035 27.6621 120.343 28.9 120.487 30.2755H115.104C115.012 29.5812 114.868 28.9655 114.671 28.4285C114.488 27.8914 114.232 27.4395 113.905 27.0727C113.538 26.6666 113.073 26.3653 112.51 26.1688C111.96 25.9592 111.298 25.8544 110.525 25.8544C110.106 25.8544 109.7 25.9199 109.307 26.0509C108.914 26.1819 108.547 26.3719 108.207 26.6207C107.761 26.9613 107.355 27.4067 106.988 27.9569C106.635 28.5071 106.34 29.1555 106.104 29.9022C105.921 30.4785 105.777 31.1204 105.672 31.8278C105.58 32.5351 105.534 33.3015 105.534 34.1267V38.0566C105.534 39.0914 105.6 40.0346 105.731 40.886C105.875 41.7375 106.071 42.4907 106.32 43.1457C106.478 43.5256 106.654 43.8793 106.851 44.2068C107.06 44.5211 107.29 44.8028 107.539 45.0517C107.958 45.4708 108.442 45.7918 108.993 46.0145C109.556 46.2241 110.191 46.3354 110.899 46.3485C111.331 46.3485 111.757 46.3158 112.176 46.2503C112.595 46.1848 112.988 46.0931 113.355 45.9752C113.722 45.8573 114.042 45.7263 114.318 45.5822C114.606 45.425 114.822 45.2613 114.966 45.091L114.986 39.9036H110.25V35.7773H120.487L120.507 47.0559ZM136.849 28.7429C137.674 28.7429 138.434 28.8018 139.128 28.9197C139.836 29.0245 140.405 29.1424 140.838 29.2734L140.032 34.7162C139.312 34.5459 138.571 34.4215 137.812 34.3429C137.065 34.2512 136.351 34.2053 135.67 34.2053C134.963 34.2053 134.321 34.2708 133.744 34.4018C133.181 34.5197 132.677 34.7031 132.231 34.952C131.694 35.2402 131.236 35.607 130.856 36.0523C130.476 36.4977 130.162 37.0217 129.913 37.6243V50.3962H124.45V29.1358H129.539L129.755 32.1422L129.795 32.6137C130.659 31.4086 131.694 30.4654 132.899 29.7843C134.105 29.09 135.421 28.7429 136.849 28.7429ZM141.382 39.5695C141.382 38.0238 141.604 36.596 142.05 35.286C142.495 33.963 143.15 32.8168 144.015 31.8474C144.866 30.8781 145.907 30.1183 147.139 29.5681C148.383 29.0179 149.804 28.7429 151.403 28.7429C153.001 28.7429 154.422 29.0179 155.666 29.5681C156.911 30.1183 157.965 30.8781 158.83 31.8474C159.681 32.8168 160.33 33.963 160.775 35.286C161.221 36.596 161.443 38.0238 161.443 39.5695V39.9822C161.443 41.541 161.221 42.982 160.775 44.305C160.33 45.6149 159.681 46.7546 158.83 47.724C157.979 48.6933 156.931 49.4531 155.686 50.0033C154.442 50.5403 153.027 50.8089 151.442 50.8089C149.844 50.8089 148.416 50.5403 147.158 50.0033C145.914 49.4531 144.866 48.6933 144.015 47.724C143.15 46.7546 142.495 45.6149 142.05 44.305C141.604 42.982 141.382 41.541 141.382 39.9822V39.5695ZM146.844 39.9822C146.844 40.8729 146.929 41.7113 147.099 42.4973C147.27 43.2701 147.538 43.9448 147.905 44.5211C148.272 45.1106 148.743 45.5756 149.32 45.9162C149.909 46.2568 150.617 46.4271 151.442 46.4271C152.241 46.4271 152.929 46.2568 153.505 45.9162C154.081 45.5756 154.553 45.1106 154.92 44.5211C155.273 43.9448 155.535 43.2701 155.706 42.4973C155.876 41.7113 155.961 40.8729 155.961 39.9822V39.5695C155.961 38.705 155.876 37.8863 155.706 37.1134C155.535 36.3405 155.273 35.6594 154.92 35.0699C154.553 34.4804 154.081 34.0154 153.505 33.6748C152.929 33.3342 152.228 33.1639 151.403 33.1639C150.59 33.1639 149.896 33.3342 149.32 33.6748C148.743 34.0154 148.272 34.4804 147.905 35.0699C147.538 35.6594 147.27 36.3405 147.099 37.1134C146.929 37.8863 146.844 38.705 146.844 39.5695V39.9822ZM176.547 50.3962L176.233 47.4096C175.512 48.4706 174.641 49.3024 173.62 49.905C172.611 50.5076 171.504 50.8089 170.299 50.8089C169.198 50.8089 168.19 50.6386 167.273 50.298C166.356 49.9574 165.57 49.4138 164.915 48.6671C164.26 47.9335 163.749 46.9969 163.382 45.8573C163.029 44.7045 162.852 43.3225 162.852 41.7113V29.1358H168.314V41.7506C168.314 42.6152 168.373 43.3422 168.491 43.9317C168.622 44.5211 168.825 44.9927 169.1 45.3464C169.375 45.7132 169.736 45.9752 170.181 46.1324C170.626 46.2896 171.17 46.3682 171.812 46.3682C172.388 46.3682 172.906 46.3092 173.364 46.1913C173.836 46.0734 174.248 45.9031 174.602 45.6804C174.903 45.4839 175.172 45.2482 175.408 44.9731C175.643 44.698 175.846 44.3901 176.017 44.0496V29.1358H181.499V50.3962H176.547ZM183.3 58.5703V29.1358H188.35L188.547 31.2186C188.835 30.865 189.149 30.5506 189.49 30.2755C189.83 29.9873 190.197 29.7384 190.59 29.5288C191.062 29.2799 191.579 29.09 192.142 28.959C192.719 28.8149 193.334 28.7429 193.989 28.7429C195.339 28.7429 196.531 29.0048 197.566 29.5288C198.6 30.0397 199.472 30.7667 200.179 31.7099C200.886 32.6661 201.417 33.8123 201.771 35.1485C202.137 36.4715 202.321 37.9387 202.321 39.5499V39.9625C202.321 41.5083 202.137 42.9427 201.771 44.2657C201.417 45.5887 200.893 46.7284 200.199 47.6847C199.491 48.654 198.62 49.4138 197.585 49.964C196.55 50.5141 195.365 50.7892 194.029 50.7892C193.321 50.7892 192.666 50.7106 192.064 50.5534C191.474 50.4093 190.924 50.1932 190.413 49.905C190.112 49.7216 189.824 49.5186 189.549 49.2959C189.274 49.0732 189.012 48.8243 188.763 48.5492V58.5703H183.3ZM196.858 39.5499C196.858 38.6591 196.773 37.8273 196.603 37.0545C196.446 36.2685 196.197 35.5873 195.856 35.0109C195.502 34.4477 195.05 34.0023 194.5 33.6748C193.963 33.3473 193.308 33.1836 192.535 33.1836C192.09 33.1836 191.684 33.2294 191.317 33.3211C190.95 33.3997 190.616 33.5176 190.315 33.6748C189.974 33.8582 189.673 34.0874 189.411 34.3625C189.162 34.6376 188.946 34.9585 188.763 35.3253V44.2068C188.933 44.5473 189.136 44.8552 189.372 45.1303C189.621 45.4054 189.902 45.6411 190.217 45.8376C190.518 46.021 190.865 46.1651 191.258 46.2699C191.651 46.3616 192.09 46.4075 192.575 46.4075C193.348 46.4075 194.003 46.2372 194.54 45.8966C195.09 45.556 195.535 45.091 195.876 44.5015C196.216 43.912 196.465 43.2308 196.622 42.458C196.78 41.672 196.858 40.8402 196.858 39.9625V39.5499Z" fill="white"/>
<defs>
<linearGradient id="paint0_linear_7_252" x1="76.7396" y1="33.1962" x2="244.553" y2="36.7939" gradientUnits="userSpaceOnUse">
<stop stop-color="#01C5F0"/>
<stop offset="1" stop-color="#80E8FE"/>
</linearGradient>
</defs>
</svg>
