<svg width="1280" height="1693" viewBox="0 0 1280 1693" fill="none" xmlns="http://www.w3.org/2000/svg">
<g clip-path="url(#clip0_38_496)">
<rect width="2580" height="1280" transform="matrix(0 -1 1 0 0 2580)" fill="white"/>
<path opacity="0.5" d="M1670.63 1515.75C1686.79 1491.51 1681.12 1458.6 1656.14 1443.61C1582.03 1399.16 1499.18 1372.47 1413.58 1365.79C1310.86 1357.77 1207.96 1378.85 1115.7 1426.83C1023.44 1474.81 945.201 1547.91 889.202 1638.46C833.203 1729.02 801.504 1833.69 797.431 1941.49C793.358 2049.3 817.061 2156.27 866.054 2251.17C915.047 2346.08 987.523 2425.43 1075.88 2480.89C1164.23 2536.35 1265.21 2565.89 1368.22 2566.39C1453.95 2566.81 1538.45 2547.12 1615.6 2509.03C1641.78 2496.11 1650.05 2463.65 1635.79 2438.19L1629.57 2427.09C1614.47 2400.12 1580.05 2391.47 1551.89 2404.21C1494.27 2430.27 1431.94 2443.69 1368.77 2443.38C1286.84 2442.98 1206.53 2419.49 1136.25 2375.38C1065.98 2331.26 1008.33 2268.15 969.366 2192.67C930.398 2117.18 911.546 2032.1 914.785 1946.36C918.024 1860.61 943.237 1777.36 987.777 1705.34C1032.32 1633.31 1094.54 1575.17 1167.93 1537.01C1241.31 1498.85 1323.15 1482.08 1404.85 1488.46C1467.84 1493.38 1528.97 1511.92 1584.44 1542.67C1611.53 1557.69 1646.62 1551.76 1663.8 1525.99L1670.63 1515.75Z" fill="#B2B2F1" fill-opacity="0.5"/>
<path d="M1210.43 534.504C1250.99 534.504 1283.88 567.385 1283.88 607.946C1283.88 648.507 1250.99 681.388 1210.43 681.388C1169.87 681.388 1136.99 648.507 1136.99 607.946C1136.99 567.385 1169.87 534.504 1210.43 534.504ZM1210.43 664.227C1241.52 664.227 1266.71 639.029 1266.71 607.946C1266.71 576.863 1241.52 551.665 1210.43 551.665C1179.35 551.665 1154.15 576.863 1154.15 607.946C1154.15 639.029 1179.35 664.227 1210.43 664.227Z" fill="#ECECFB"/>
<path d="M527.694 768.43C568.255 768.43 601.136 801.311 601.136 841.872C601.136 882.433 568.255 915.314 527.694 915.314C487.134 915.314 454.252 882.433 454.252 841.872C454.252 801.311 487.134 768.43 527.694 768.43ZM527.694 898.153C558.778 898.153 583.975 872.955 583.975 841.872C583.975 810.789 558.778 785.591 527.694 785.591C496.611 785.591 471.414 810.789 471.414 841.872C471.414 872.955 496.611 898.153 527.694 898.153Z" fill="#ECECFB"/>
<path d="M0.00012207 257.056C181.773 257.056 329.129 404.412 329.129 586.185C329.129 767.958 181.773 915.314 0.00012207 915.314C-181.773 915.314 -329.129 767.958 -329.129 586.185C-329.129 404.412 -181.773 257.056 0.00012207 257.056ZM0.00012207 838.407C139.298 838.407 252.222 725.483 252.222 586.185C252.222 446.887 139.298 333.964 0.00012207 333.964C-139.298 333.964 -252.221 446.887 -252.221 586.185C-252.221 725.483 -139.298 838.407 0.00012207 838.407Z" fill="#ECECFB"/>
<path d="M356.33 1035C538.103 1035 685.459 1182.35 685.459 1364.13C685.459 1545.9 538.103 1693.26 356.33 1693.26C174.557 1693.26 27.2007 1545.9 27.2007 1364.13C27.2007 1182.35 174.557 1035 356.33 1035ZM356.33 1616.35C495.628 1616.35 608.551 1503.42 608.551 1364.13C608.551 1224.83 495.628 1111.91 356.33 1111.91C217.032 1111.91 104.108 1224.83 104.108 1364.13C104.108 1503.42 217.032 1616.35 356.33 1616.35Z" fill="#ECECFB"/>
<path d="M690.899 -50.3121C872.672 -50.3121 1020.03 97.044 1020.03 278.817C1020.03 460.59 872.672 607.946 690.899 607.946C509.126 607.946 361.77 460.59 361.77 278.817C361.77 97.044 509.126 -50.3121 690.899 -50.3121ZM690.899 531.038C830.197 531.038 943.121 418.115 943.121 278.817C943.121 139.519 830.197 26.5953 690.899 26.5953C551.601 26.5953 438.677 139.519 438.677 278.817C438.677 418.115 551.601 531.038 690.899 531.038Z" fill="#ECECFB"/>
<path d="M907.145 915.314C998.032 915.314 1071.71 988.992 1071.71 1079.88C1071.71 1170.77 998.032 1244.44 907.145 1244.44C816.259 1244.44 742.581 1170.77 742.581 1079.88C742.581 988.992 816.259 915.314 907.145 915.314ZM907.145 1205.99C976.794 1205.99 1033.26 1149.53 1033.26 1079.88C1033.26 1010.23 976.794 953.768 907.145 953.768C837.496 953.768 781.034 1010.23 781.034 1079.88C781.034 1149.53 837.496 1205.99 907.145 1205.99Z" fill="#ECECFB"/>
<path d="M1369.56 -232.557C1469.46 -232.557 1550.44 -151.572 1550.44 -51.6723C1550.44 48.2277 1469.46 129.213 1369.56 129.213C1269.66 129.213 1188.67 48.2277 1188.67 -51.6723C1188.67 -151.572 1269.66 -232.557 1369.56 -232.557ZM1369.56 86.9453C1446.11 86.9453 1508.18 24.8841 1508.18 -51.6723C1508.18 -128.229 1446.11 -190.29 1369.56 -190.29C1293 -190.29 1230.94 -128.229 1230.94 -51.6723C1230.94 24.8841 1293 86.9453 1369.56 86.9453Z" fill="#ECECFB"/>
</g>
<defs>
<clipPath id="clip0_38_496">
<rect width="2580" height="1280" fill="white" transform="matrix(0 -1 1 0 0 2580)"/>
</clipPath>
</defs>
</svg>
